<?xml version="1.0" encoding="UTF-8" standalone="no"?>
<!DOCTYPE svg PUBLIC "-//W3C//DTD SVG 1.1//EN"
 "http://www.w3.org/Graphics/SVG/1.1/DTD/svg11.dtd">
<!-- Generated by graphviz version 2.43.0 (0)
 -->
<!-- Title: Tree Pages: 1 -->
<svg width="611pt" height="269pt"
 viewBox="0.00 0.00 611.00 269.00" xmlns="http://www.w3.org/2000/svg" xmlns:xlink="http://www.w3.org/1999/xlink">
<g id="graph0" class="graph" transform="scale(1 1) rotate(0) translate(4 265)">
<title>Tree</title>
<polygon fill="white" stroke="transparent" points="-4,4 -4,-265 607,-265 607,4 -4,4"/>
<!-- 0 -->
<g id="node1" class="node">
<title>0</title>
<polygon fill="none" stroke="black" points="376.5,-261 225.5,-261 225.5,-193 376.5,-193 376.5,-261"/>
<text text-anchor="middle" x="301" y="-245.8" font-family="Helvetica,sans-Serif" font-size="14.00">[2] &lt;= 3.5</text>
<text text-anchor="middle" x="301" y="-230.8" font-family="Helvetica,sans-Serif" font-size="14.00">squared_error = 57.84</text>
<text text-anchor="middle" x="301" y="-215.8" font-family="Helvetica,sans-Serif" font-size="14.00">samples = 5</text>
<text text-anchor="middle" x="301" y="-200.8" font-family="Helvetica,sans-Serif" font-size="14.00">value = 20.6</text>
</g>
<!-- 1 -->
<g id="node2" class="node">
<title>1</title>
<polygon fill="none" stroke="black" points="287,-157 151,-157 151,-89 287,-89 287,-157"/>
<text text-anchor="middle" x="219" y="-141.8" font-family="Helvetica,sans-Serif" font-size="14.00">[2] &lt;= 2.5</text>
<text text-anchor="middle" x="219" y="-126.8" font-family="Helvetica,sans-Serif" font-size="14.00">squared_error = 4.0</text>
<text text-anchor="middle" x="219" y="-111.8" font-family="Helvetica,sans-Serif" font-size="14.00">samples = 2</text>
<text text-anchor="middle" x="219" y="-96.8" font-family="Helvetica,sans-Serif" font-size="14.00">value = 12.0</text>
</g>
<!-- 0&#45;&gt;1 -->
<g id="edge1" class="edge">
<title>0&#45;&gt;1</title>
<path fill="none" stroke="black" d="M274.38,-192.88C267.29,-184.07 259.54,-174.43 252.15,-165.24"/>
<polygon fill="black" stroke="black" points="254.76,-162.9 245.77,-157.3 249.31,-167.29 254.76,-162.9"/>
<text text-anchor="middle" x="243.07" y="-178.45" font-family="Helvetica,sans-Serif" font-size="14.00">True</text>
</g>
<!-- 4 -->
<g id="node5" class="node">
<title>4</title>
<polygon fill="none" stroke="black" points="463,-157 305,-157 305,-89 463,-89 463,-157"/>
<text text-anchor="middle" x="384" y="-141.8" font-family="Helvetica,sans-Serif" font-size="14.00">[2] &lt;= 5.5</text>
<text text-anchor="middle" x="384" y="-126.8" font-family="Helvetica,sans-Serif" font-size="14.00">squared_error = 11.556</text>
<text text-anchor="middle" x="384" y="-111.8" font-family="Helvetica,sans-Serif" font-size="14.00">samples = 3</text>
<text text-anchor="middle" x="384" y="-96.8" font-family="Helvetica,sans-Serif" font-size="14.00">value = 26.333</text>
</g>
<!-- 0&#45;&gt;4 -->
<g id="edge4" class="edge">
<title>0&#45;&gt;4</title>
<path fill="none" stroke="black" d="M327.95,-192.88C335.12,-184.07 342.96,-174.43 350.45,-165.24"/>
<polygon fill="black" stroke="black" points="353.31,-167.26 356.9,-157.3 347.88,-162.85 353.31,-167.26"/>
<text text-anchor="middle" x="359.46" y="-178.47" font-family="Helvetica,sans-Serif" font-size="14.00">False</text>
</g>
<!-- 2 -->
<g id="node3" class="node">
<title>2</title>
<polygon fill="none" stroke="black" points="136,-53 0,-53 0,0 136,0 136,-53"/>
<text text-anchor="middle" x="68" y="-37.8" font-family="Helvetica,sans-Serif" font-size="14.00">squared_error = 0.0</text>
<text text-anchor="middle" x="68" y="-22.8" font-family="Helvetica,sans-Serif" font-size="14.00">samples = 1</text>
<text text-anchor="middle" x="68" y="-7.8" font-family="Helvetica,sans-Serif" font-size="14.00">value = 10.0</text>
</g>
<!-- 1&#45;&gt;2 -->
<g id="edge2" class="edge">
<title>1&#45;&gt;2</title>
<path fill="none" stroke="black" d="M166.19,-88.95C150.55,-79.16 133.47,-68.48 118.02,-58.8"/>
<polygon fill="black" stroke="black" points="119.46,-55.57 109.12,-53.24 115.74,-61.51 119.46,-55.57"/>
</g>
<!-- 3 -->
<g id="node4" class="node">
<title>3</title>
<polygon fill="none" stroke="black" points="290,-53 154,-53 154,0 290,0 290,-53"/>
<text text-anchor="middle" x="222" y="-37.8" font-family="Helvetica,sans-Serif" font-size="14.00">squared_error = 0.0</text>
<text text-anchor="middle" x="222" y="-22.8" font-family="Helvetica,sans-Serif" font-size="14.00">samples = 1</text>
<text text-anchor="middle" x="222" y="-7.8" font-family="Helvetica,sans-Serif" font-size="14.00">value = 14.0</text>
</g>
<!-- 1&#45;&gt;3 -->
<g id="edge3" class="edge">
<title>1&#45;&gt;3</title>
<path fill="none" stroke="black" d="M220.05,-88.95C220.31,-80.72 220.59,-71.85 220.86,-63.48"/>
<polygon fill="black" stroke="black" points="224.36,-63.34 221.18,-53.24 217.37,-63.12 224.36,-63.34"/>
</g>
<!-- 5 -->
<g id="node6" class="node">
<title>5</title>
<polygon fill="none" stroke="black" points="449,-53 313,-53 313,0 449,0 449,-53"/>
<text text-anchor="middle" x="381" y="-37.8" font-family="Helvetica,sans-Serif" font-size="14.00">squared_error = 1.0</text>
<text text-anchor="middle" x="381" y="-22.8" font-family="Helvetica,sans-Serif" font-size="14.00">samples = 2</text>
<text text-anchor="middle" x="381" y="-7.8" font-family="Helvetica,sans-Serif" font-size="14.00">value = 24.0</text>
</g>
<!-- 4&#45;&gt;5 -->
<g id="edge5" class="edge">
<title>4&#45;&gt;5</title>
<path fill="none" stroke="black" d="M382.95,-88.95C382.69,-80.72 382.41,-71.85 382.14,-63.48"/>
<polygon fill="black" stroke="black" points="385.63,-63.12 381.82,-53.24 378.64,-63.34 385.63,-63.12"/>
</g>
<!-- 6 -->
<g id="node7" class="node">
<title>6</title>
<polygon fill="none" stroke="black" points="603,-53 467,-53 467,0 603,0 603,-53"/>
<text text-anchor="middle" x="535" y="-37.8" font-family="Helvetica,sans-Serif" font-size="14.00">squared_error = 0.0</text>
<text text-anchor="middle" x="535" y="-22.8" font-family="Helvetica,sans-Serif" font-size="14.00">samples = 1</text>
<text text-anchor="middle" x="535" y="-7.8" font-family="Helvetica,sans-Serif" font-size="14.00">value = 31.0</text>
</g>
<!-- 4&#45;&gt;6 -->
<g id="edge6" class="edge">
<title>4&#45;&gt;6</title>
<path fill="none" stroke="black" d="M436.81,-88.95C452.45,-79.16 469.53,-68.48 484.98,-58.8"/>
<polygon fill="black" stroke="black" points="487.26,-61.51 493.88,-53.24 483.54,-55.57 487.26,-61.51"/>
</g>
</g>
</svg>