<?xml version="1.0" encoding="UTF-8" standalone="no"?>
<!DOCTYPE svg PUBLIC "-//W3C//DTD SVG 1.1//EN"
 "http://www.w3.org/Graphics/SVG/1.1/DTD/svg11.dtd">
<!-- Generated by graphviz version 2.43.0 (0)
 -->
<!-- Title: Tree Pages: 1 -->
<svg width="350pt" height="314pt"
 viewBox="0.00 0.00 349.50 314.00" xmlns="http://www.w3.org/2000/svg" xmlns:xlink="http://www.w3.org/1999/xlink">
<g id="graph0" class="graph" transform="scale(1 1) rotate(0) translate(4 310)">
<title>Tree</title>
<polygon fill="white" stroke="transparent" points="-4,4 -4,-310 345.5,-310 345.5,4 -4,4"/>
<!-- 0 -->
<g id="node1" class="node">
<title>0</title>
<polygon fill="none" stroke="black" points="219.5,-306 48.5,-306 48.5,-223 219.5,-223 219.5,-306"/>
<text text-anchor="middle" x="134" y="-290.8" font-family="Helvetica,sans-Serif" font-size="14.00">sepal length (cm) &lt;= 5.45</text>
<text text-anchor="middle" x="134" y="-275.8" font-family="Helvetica,sans-Serif" font-size="14.00">gini = 0.667</text>
<text text-anchor="middle" x="134" y="-260.8" font-family="Helvetica,sans-Serif" font-size="14.00">samples = 6</text>
<text text-anchor="middle" x="134" y="-245.8" font-family="Helvetica,sans-Serif" font-size="14.00">value = [2, 2, 2]</text>
<text text-anchor="middle" x="134" y="-230.8" font-family="Helvetica,sans-Serif" font-size="14.00">class = setosa</text>
</g>
<!-- 1 -->
<g id="node2" class="node">
<title>1</title>
<polygon fill="none" stroke="black" points="110,-179.5 0,-179.5 0,-111.5 110,-111.5 110,-179.5"/>
<text text-anchor="middle" x="55" y="-164.3" font-family="Helvetica,sans-Serif" font-size="14.00">gini = 0.0</text>
<text text-anchor="middle" x="55" y="-149.3" font-family="Helvetica,sans-Serif" font-size="14.00">samples = 2</text>
<text text-anchor="middle" x="55" y="-134.3" font-family="Helvetica,sans-Serif" font-size="14.00">value = [2, 0, 0]</text>
<text text-anchor="middle" x="55" y="-119.3" font-family="Helvetica,sans-Serif" font-size="14.00">class = setosa</text>
</g>
<!-- 0&#45;&gt;1 -->
<g id="edge1" class="edge">
<title>0&#45;&gt;1</title>
<path fill="none" stroke="black" d="M106.59,-222.91C98.99,-211.65 90.73,-199.42 83.09,-188.11"/>
<polygon fill="black" stroke="black" points="85.89,-186 77.39,-179.67 80.09,-189.91 85.89,-186"/>
<text text-anchor="middle" x="72.64" y="-200.51" font-family="Helvetica,sans-Serif" font-size="14.00">True</text>
</g>
<!-- 2 -->
<g id="node3" class="node">
<title>2</title>
<polygon fill="none" stroke="black" points="299.5,-187 128.5,-187 128.5,-104 299.5,-104 299.5,-187"/>
<text text-anchor="middle" x="214" y="-171.8" font-family="Helvetica,sans-Serif" font-size="14.00">sepal length (cm) &lt;= 6.35</text>
<text text-anchor="middle" x="214" y="-156.8" font-family="Helvetica,sans-Serif" font-size="14.00">gini = 0.5</text>
<text text-anchor="middle" x="214" y="-141.8" font-family="Helvetica,sans-Serif" font-size="14.00">samples = 4</text>
<text text-anchor="middle" x="214" y="-126.8" font-family="Helvetica,sans-Serif" font-size="14.00">value = [0, 2, 2]</text>
<text text-anchor="middle" x="214" y="-111.8" font-family="Helvetica,sans-Serif" font-size="14.00">class = versicolor</text>
</g>
<!-- 0&#45;&gt;2 -->
<g id="edge2" class="edge">
<title>0&#45;&gt;2</title>
<path fill="none" stroke="black" d="M161.76,-222.91C167.84,-214.01 174.34,-204.51 180.61,-195.33"/>
<polygon fill="black" stroke="black" points="183.54,-197.25 186.29,-187.02 177.76,-193.3 183.54,-197.25"/>
<text text-anchor="middle" x="190.91" y="-207.89" font-family="Helvetica,sans-Serif" font-size="14.00">False</text>
</g>
<!-- 3 -->
<g id="node4" class="node">
<title>3</title>
<polygon fill="none" stroke="black" points="202.5,-68 89.5,-68 89.5,0 202.5,0 202.5,-68"/>
<text text-anchor="middle" x="146" y="-52.8" font-family="Helvetica,sans-Serif" font-size="14.00">gini = 0.0</text>
<text text-anchor="middle" x="146" y="-37.8" font-family="Helvetica,sans-Serif" font-size="14.00">samples = 2</text>
<text text-anchor="middle" x="146" y="-22.8" font-family="Helvetica,sans-Serif" font-size="14.00">value = [0, 0, 2]</text>
<text text-anchor="middle" x="146" y="-7.8" font-family="Helvetica,sans-Serif" font-size="14.00">class = virginica</text>
</g>
<!-- 2&#45;&gt;3 -->
<g id="edge3" class="edge">
<title>2&#45;&gt;3</title>
<path fill="none" stroke="black" d="M188.68,-103.73C183.24,-94.97 177.49,-85.7 172.02,-76.91"/>
<polygon fill="black" stroke="black" points="174.93,-74.95 166.68,-68.3 168.98,-78.64 174.93,-74.95"/>
</g>
<!-- 4 -->
<g id="node5" class="node">
<title>4</title>
<polygon fill="none" stroke="black" points="341.5,-68 220.5,-68 220.5,0 341.5,0 341.5,-68"/>
<text text-anchor="middle" x="281" y="-52.8" font-family="Helvetica,sans-Serif" font-size="14.00">gini = 0.0</text>
<text text-anchor="middle" x="281" y="-37.8" font-family="Helvetica,sans-Serif" font-size="14.00">samples = 2</text>
<text text-anchor="middle" x="281" y="-22.8" font-family="Helvetica,sans-Serif" font-size="14.00">value = [0, 2, 0]</text>
<text text-anchor="middle" x="281" y="-7.8" font-family="Helvetica,sans-Serif" font-size="14.00">class = versicolor</text>
</g>
<!-- 2&#45;&gt;4 -->
<g id="edge4" class="edge">
<title>2&#45;&gt;4</title>
<path fill="none" stroke="black" d="M238.95,-103.73C244.31,-94.97 249.98,-85.7 255.36,-76.91"/>
<polygon fill="black" stroke="black" points="258.39,-78.66 260.62,-68.3 252.42,-75 258.39,-78.66"/>
</g>
</g>
</svg>